HIERARCHY
ROOT Hips
{
	OFFSET 0.000000 0.000000 0.000000
	CHANNELS 6 Xposition Yposition Zposition Xrotation Yrotation Zrotation
	JOINT LeftUpLeg_virtual
	{
		OFFSET 0.000000 0.000000 0.000000
		CHANNELS 3 Xrotation Yrotation Zrotation
		JOINT LeftUpLeg
		{
			OFFSET 11.394100 -6.187798 -0.413800
			CHANNELS 3 Xrotation Yrotation Zrotation
			JOINT LeftLeg
			{
				OFFSET 0.430247 -32.302673 3.732800
				CHANNELS 3 Xrotation Yrotation Zrotation
				JOINT LeftFoot
				{
					OFFSET -0.430247 -48.264931 -6.423300
					CHANNELS 3 Xrotation Yrotation Zrotation
					JOINT LeftToeBase
					{
						OFFSET 4.230900 -16.068199 23.438400
						CHANNELS 3 Xrotation Yrotation Zrotation
						JOINT LeftToe_End
						{
							OFFSET 4.510700 0.695400 19.974600
							CHANNELS 3 Xrotation Yrotation Zrotation
							End Site
							{
								OFFSET 0 0 0
							}
						}
					}
				}
			}
		}
	}
	JOINT RightUpLeg_virtual
	{
		OFFSET 0.000000 0.000000 0.000000
		CHANNELS 3 Xrotation Yrotation Zrotation
		JOINT RightUpLeg
		{
			OFFSET -11.333700 -6.187798 -0.413800
			CHANNELS 3 Xrotation Yrotation Zrotation
			JOINT RightLeg
			{
				OFFSET -0.430392 -32.302628 3.733000
				CHANNELS 3 Xrotation Yrotation Zrotation
				JOINT RightFoot
				{
					OFFSET 0.430392 -48.264973 -6.423500
					CHANNELS 3 Xrotation Yrotation Zrotation
					JOINT RightToeBase
					{
						OFFSET -4.230900 -16.068199 23.438400
						CHANNELS 3 Xrotation Yrotation Zrotation
						JOINT RightToe_End
						{
							OFFSET -4.510700 0.695400 19.974600
							CHANNELS 3 Xrotation Yrotation Zrotation
							End Site
							{
								OFFSET 0 0 0
							}
						}
					}
				}
			}
		}
	}
	JOINT Spine_virtual
	{
		OFFSET 0.000000 0.000000 0.000000
		CHANNELS 3 Xrotation Yrotation Zrotation
		JOINT Spine
		{
			OFFSET -0.002400 12.777504 0.315300
			CHANNELS 3 Xrotation Yrotation Zrotation
			JOINT Spine1
			{
				OFFSET -0.002067 5.816869 0.032633
				CHANNELS 3 Xrotation Yrotation Zrotation
				JOINT Spine1_split
				{
					OFFSET -0.002067 5.816869 0.032633
					CHANNELS 3 Xrotation Yrotation Zrotation
					JOINT Spine2
					{
						OFFSET -0.002067 5.816869 0.032633
						CHANNELS 3 Xrotation Yrotation Zrotation
						JOINT Neck_virtual
						{
							OFFSET 0.000000 0.000000 0.000000
							CHANNELS 3 Xrotation Yrotation Zrotation
							JOINT Neck
							{
								OFFSET -0.003700 21.199493 -0.826900
								CHANNELS 3 Xrotation Yrotation Zrotation
								JOINT Head
								{
									OFFSET 0.000000 20.442200 4.834800
									CHANNELS 3 Xrotation Yrotation Zrotation
									JOINT HeadTop_End
									{
										OFFSET 0.000000 34.668396 4.968400
										CHANNELS 3 Xrotation Yrotation Zrotation
										End Site
										{
											OFFSET 0 0 0
										}
									}
								}
							}
						}
						JOINT LeftShoulder_virtual
						{
							OFFSET 0.000000 0.000000 0.000000
							CHANNELS 3 Xrotation Yrotation Zrotation
							JOINT LeftShoulder
							{
								OFFSET 3.288150 8.794197 -1.372250
								CHANNELS 3 Xrotation Yrotation Zrotation
								JOINT LeftShoulder_split
								{
									OFFSET 3.288150 8.794197 -1.372250
									CHANNELS 3 Xrotation Yrotation Zrotation
									JOINT LeftArm
									{
										OFFSET 11.953299 -2.279007 -0.146200
										CHANNELS 3 Xrotation Yrotation Zrotation
										JOINT LeftForeArm
										{
											OFFSET 18.448900 0.000000 0.000000
											CHANNELS 3 Xrotation Yrotation Zrotation
											JOINT LeftHand
											{
												OFFSET 29.527798 0.000000 0.000000
												CHANNELS 3 Xrotation Yrotation Zrotation
												End Site
												{
													OFFSET 0 0 0
												}
											}
										}
									}
								}
							}
						}
						JOINT RightShoulder_virtual
						{
							OFFSET 0.000000 0.000000 0.000000
							CHANNELS 3 Xrotation Yrotation Zrotation
							JOINT RightShoulder
							{
								OFFSET -3.249400 8.794197 -1.372250
								CHANNELS 3 Xrotation Yrotation Zrotation
								JOINT RightShoulder_split
								{
									OFFSET -3.249400 8.794197 -1.372250
									CHANNELS 3 Xrotation Yrotation Zrotation
									JOINT RightArm
									{
										OFFSET -11.953299 -2.279007 -0.146200
										CHANNELS 3 Xrotation Yrotation Zrotation
										JOINT RightForeArm
										{
											OFFSET -18.448900 0.000000 0.000000
											CHANNELS 3 Xrotation Yrotation Zrotation
											JOINT RightHand
											{
												OFFSET -29.527802 0.000000 0.000000
												CHANNELS 3 Xrotation Yrotation Zrotation
												End Site
												{
													OFFSET 0 0 0
												}
											}
										}
									}
								}
							}
						}
					}
				}
			}
		}
	}
}
MOTION
Frames: 7
Frame Time: 0.03333333
-0.799356 104.499039 0.644287 0.000000 0.000000 0.000000 -1.963124 6.727512 -2.278037 -7.751193 12.179353 12.007927 9.397911 -3.842900 1.019940 -1.929281 -0.403172 -5.159102 1.827442 0.365871 -3.058735 0.000000 0.000000 0.000000 -2.114715 7.806182 -2.201796 -11.416061 -4.550140 0.639620 7.724037 3.058248 -3.493389 7.772678 0.605342 -0.973106 -2.533487 -0.264195 0.248615 0.000000 0.000000 0.000000 -1.913097 10.111158 -2.459732 9.659779 -0.460005 1.337797 3.167971 0.218136 -0.547607 0.301886 -2.312083 1.086678 0.000000 0.000000 0.000000 -4.304337 -0.024514 0.074178 -0.134996 0.299932 0.287676 6.270802 -3.703910 -1.332317 0.000000 0.000000 0.000000 -4.631566 -0.483843 0.161056 0.569449 -4.119188 -8.172034 -0.562542 -2.140816 1.107692 4.898849 1.296294 -72.318289 3.499912 -11.928907 1.378407 0.000000 0.000000 0.000000 -5.412539 -0.768970 0.184750 0.727471 8.067720 5.736541 -3.031031 -0.928509 -0.357959 3.609963 12.995991 77.063672 16.855973 19.136295 -4.852419 0.000000 0.000000 0.000000 
-0.515954 104.574532 0.419083 0.000000 0.000000 0.000000 -1.815635 6.875740 -2.269733 -7.496549 12.022114 11.845086 9.291331 -3.705689 0.991456 -2.188330 -0.305133 -5.215880 1.841090 0.334789 -2.990904 0.000000 0.000000 0.000000 -1.879734 7.933233 -2.259358 -11.639430 -4.730263 0.404518 7.561256 3.188021 -3.533431 7.595835 0.843862 -1.168114 -2.080001 -0.218291 -0.012655 0.000000 0.000000 0.000000 -1.714016 9.714908 -2.501611 9.499444 -0.428079 1.365234 3.121395 0.246177 -0.553277 0.237846 -2.345079 0.931710 0.000000 0.000000 0.000000 -4.205543 0.004546 0.071656 -0.079032 0.371441 0.269703 6.300397 -3.891112 -1.130152 0.000000 0.000000 0.000000 -4.645282 -0.462599 0.125827 0.614739 -4.046753 -8.042229 -0.636441 -2.016864 1.092773 4.724884 1.160762 -72.312968 3.454353 -12.057833 1.362985 0.000000 0.000000 0.000000 -5.448013 -0.741272 0.214171 0.703318 7.788365 5.581456 -3.062609 -0.870510 -0.353543 3.486651 13.363375 76.938147 16.925695 19.487541 -5.011827 0.000000 0.000000 0.000000 
-0.091819 104.509140 0.399384 0.000000 0.000000 0.000000 -1.798808 7.168329 -2.290063 -7.255824 11.737951 11.641932 9.370893 -3.564487 0.885111 -2.650295 -0.146747 -5.278700 1.831514 0.310495 -2.862505 0.000000 0.000000 0.000000 -1.647869 8.064267 -2.382919 -11.421686 -4.851747 0.111416 7.144357 3.356163 -3.628833 6.914350 1.333411 -1.334635 -1.903226 -0.150278 -0.553054 0.000000 0.000000 0.000000 -1.553320 9.343408 -2.496841 9.307889 -0.331138 1.407501 3.117841 0.307655 -0.569012 0.245625 -2.259635 0.833203 0.000000 0.000000 0.000000 -4.074003 0.063623 0.064794 -0.151180 0.492883 0.158594 6.193128 -4.079720 -0.825878 0.000000 0.000000 0.000000 -4.586875 -0.413083 0.087244 0.673865 -3.953180 -7.812182 -0.753767 -2.019208 1.017388 4.516749 0.890697 -72.224715 3.493539 -12.151661 1.302110 0.000000 0.000000 0.000000 -5.384478 -0.679050 0.222625 0.714035 7.558508 5.356398 -3.007169 -0.979593 -0.348862 3.437068 13.814519 76.740413 17.062945 20.176625 -5.587127 0.000000 0.000000 0.000000 
0.430416 104.281944 0.664867 0.000000 0.000000 0.000000 -1.885455 7.446636 -2.325415 -7.011544 11.403791 11.391659 9.539677 -3.348280 0.718314 -3.245732 0.073325 -5.257373 1.781418 0.291979 -2.694891 0.000000 0.000000 0.000000 -1.473720 8.110190 -2.494770 -10.845222 -5.014859 -0.273781 6.822852 3.474167 -3.675824 5.931416 1.927077 -1.559490 -1.929540 -0.065528 -1.189315 0.000000 0.000000 0.000000 -1.517865 9.039978 -2.445421 9.111571 -0.209968 1.461410 3.160218 0.383287 -0.573794 0.289449 -2.101296 0.817305 0.000000 0.000000 0.000000 -3.944859 0.127062 0.075973 -0.314973 0.640711 -0.032148 5.967587 -4.271367 -0.452201 0.000000 0.000000 0.000000 -4.463125 -0.353065 0.063521 0.742322 -3.842600 -7.549073 -0.910486 -2.058730 0.925665 4.338394 0.504066 -72.156366 3.617884 -12.154597 1.202007 0.000000 0.000000 0.000000 -5.232632 -0.601479 0.225790 0.760588 7.397642 5.101861 -2.914743 -1.165152 -0.398452 3.450402 14.147340 76.541695 17.205240 20.997839 -6.477815 0.000000 0.000000 0.000000 
1.004001 103.978401 1.171265 0.000000 0.000000 0.000000 -2.033921 7.533272 -2.339112 -6.660496 10.982484 11.073898 9.679123 -2.975561 0.525245 -3.985003 0.379540 -5.037086 1.644328 0.291106 -2.472146 0.000000 0.000000 0.000000 -1.432594 7.934563 -2.545720 -10.008618 -5.259336 -0.771735 6.540567 3.578839 -3.595892 4.867798 2.525623 -1.651169 -2.124816 -0.019977 -1.767956 0.000000 0.000000 0.000000 -1.591780 8.836475 -2.382816 8.926178 -0.085397 1.518885 3.231815 0.449860 -0.545286 0.351690 -1.914582 0.823209 0.000000 0.000000 0.000000 -3.838802 0.174510 0.122119 -0.515864 0.806024 -0.244340 5.673940 -4.452245 -0.061980 0.000000 0.000000 0.000000 -4.303101 -0.297498 0.075876 0.807195 -3.728283 -7.320602 -1.061484 -2.152742 0.841517 4.199625 0.042881 -72.171665 3.818892 -12.083329 1.082330 0.000000 0.000000 0.000000 -5.029873 -0.532312 0.243496 0.842096 7.332001 4.869329 -2.744157 -1.264399 -0.450818 3.420113 14.267840 76.427939 17.250201 21.764888 -7.537580 0.000000 0.000000 0.000000 
1.556622 103.722496 1.752987 0.000000 0.000000 0.000000 -2.240967 7.391811 -2.291620 -6.136795 10.426698 10.718510 9.785484 -2.456879 0.390523 -4.739169 0.762444 -4.582210 1.490169 0.316223 -2.229114 0.000000 0.000000 0.000000 -1.638096 7.612690 -2.537881 -9.128646 -5.503972 -1.342211 6.402556 3.669949 -3.372120 3.948147 3.079539 -1.418510 -2.299465 -0.020150 -2.208049 0.000000 0.000000 0.000000 -1.746203 8.746108 -2.367326 8.796524 0.017808 1.569964 3.292593 0.494844 -0.476325 0.462241 -1.634505 0.805215 0.000000 0.000000 0.000000 -3.761923 0.193791 0.204338 -0.702683 0.984148 -0.416127 5.341712 -4.615348 0.308044 0.000000 0.000000 0.000000 -4.146881 -0.257115 0.129875 0.862994 -3.635847 -7.195494 -1.172453 -2.311152 0.803871 4.076191 -0.418607 -72.298584 4.084267 -11.994038 0.955729 0.000000 0.000000 0.000000 -4.818247 -0.482242 0.285984 0.939057 7.378915 4.690492 -2.522197 -1.281313 -0.466449 3.243477 14.116463 76.445075 17.084089 22.267021 -8.586457 0.000000 0.000000 0.000000 
2.083659 103.558594 2.225410 0.000000 0.000000 0.000000 -2.490778 6.980698 -2.238053 -5.423309 9.736290 10.304471 9.950098 -1.897956 0.367790 -5.405346 1.211008 -3.998408 1.443756 0.362144 -2.002090 0.000000 0.000000 0.000000 -2.022507 7.199731 -2.475249 -8.222510 -5.606540 -1.924578 6.299620 3.707268 -3.090974 3.143550 3.542003 -0.853576 -2.343649 -0.037146 -2.423740 0.000000 0.000000 0.000000 -1.882483 8.707847 -2.389185 8.755841 0.092828 1.597516 3.291198 0.513727 -0.375029 0.487962 -1.311853 0.773897 0.000000 0.000000 0.000000 -3.723591 0.188490 0.309194 -0.852954 1.150327 -0.498277 4.984601 -4.770405 0.640355 0.000000 0.000000 0.000000 -4.038101 -0.227929 0.223402 0.896781 -3.576792 -7.161202 -1.175938 -2.439766 0.811617 3.929509 -0.812893 -72.501181 4.407615 -11.928962 0.809722 0.000000 0.000000 0.000000 -4.655558 -0.451750 0.351302 1.023039 7.502422 4.590235 -2.252320 -1.264696 -0.407800 2.890216 13.741876 76.572957 16.672907 22.387815 -9.497092 0.000000 0.000000 0.000000 
